<svg version="1.1" id="Layer_1" xmlns="http://www.w3.org/2000/svg" xmlns:xlink="http://www.w3.org/1999/xlink" viewBox="0 0 512 512" xml:space="preserve" fill="#000000"><g id="SVGRepo_bgCarrier" stroke-width="0"></g><g id="SVGRepo_tracerCarrier" stroke-linecap="round" stroke-linejoin="round"></g><g id="SVGRepo_iconCarrier"> <path style="fill:#9E483C;" d="M256,416.717h-9.234c-65.18,0-118.509-53.329-118.509-118.509V162.116 c0-65.18,53.329-118.509,118.509-118.509H256c65.18,0,118.509,53.329,118.509,118.509v136.092 C374.509,363.388,321.18,416.717,256,416.717z"></path> <g> <path style="fill:#FEBBA0;" d="M210.028,317.987v19.988c0,6.678-4.015,12.7-10.179,15.27l-66.035,27.515 c-13.951,5.814-23.038,21.613-23.038,36.727v79.637h281.215v-79.637c0-15.113-9.088-30.914-23.038-36.727l-66.035-27.515 c-6.165-2.568-10.179-8.592-10.179-15.27v-19.988H210.028z"></path> <path style="fill:#FEBBA0;" d="M343.727,170.287v93.022c-1.106,14.47-8.327,27.354-19.013,34.41l-55.392,31.762 c-11.156,7.368-24.722,7.368-35.878,0l-55.56-31.762c-10.684-7.056-17.74-19.939-18.848-34.41v-93.022L343.727,170.287 L343.727,170.287z"></path> </g> <path style="fill:#FFFFFF;" d="M368.952,380.759l-66.035-27.515c-1.954-0.814-3.69-1.977-5.152-3.396l-46.383,46.288l-46.289-46.385 c-1.483,1.462-3.248,2.662-5.246,3.494l-66.035,27.515c-13.951,5.814-23.038,21.613-23.038,36.727v79.636H391.99v-79.637 C391.99,402.371,382.902,386.57,368.952,380.759z"></path> <path style="fill:#0F8EE3;" d="M368.952,380.759l-66.035-27.515c-1.954-0.814-3.69-1.977-5.152-3.396l-46.383,46.288l-46.289-46.385 c-1.483,1.462-3.248,2.662-5.246,3.494l-66.035,27.515c-13.951,5.814-23.038,21.613-23.038,36.727v79.636H391.99v-79.637 C391.99,402.371,382.902,386.57,368.952,380.759z"></path> <g> <polygon style="fill:#FFFFFF;" points="205.093,349.751 225.731,420.168 251.383,396.136 "></polygon> <polygon style="fill:#FFFFFF;" points="297.672,349.751 277.034,420.168 251.383,396.136 "></polygon> </g> <g> <path style="fill:#FFE06B;" d="M344.368,83.797l4.49-43.387c-29.145-16.241-62.493-25.491-97.944-25.531 c-35.053-0.041-68.061,8.946-97.006,24.785l4.456,44.134h186.004V83.797z"></path> <path style="fill:#FFE06B;" d="M322.572,83.844c0,16.197-31.872,29.329-71.19,29.329s-71.19-13.13-71.19-29.329H322.572z"></path> </g> <circle style="fill:#FFFFFF;" cx="441.069" cy="345.626" r="50.277"></circle> <rect x="10.261" y="366.814" style="fill:#546885;" width="100.512" height="63.615"></rect> <path d="M10.395,486.862h-0.134C4.594,486.862,0,491.455,0,497.122s4.594,10.261,10.261,10.261h0.134 c5.667,0,10.261-4.594,10.261-10.261S16.062,486.862,10.395,486.862z"></path> <path d="M492.505,486.862h-0.134c-5.667,0-10.261,4.594-10.261,10.261s4.594,10.261,10.261,10.261h0.134 c5.667,0,10.261-4.594,10.261-10.261S498.172,486.862,492.505,486.862z"></path> <path d="M281.273,442.741h-0.134c-5.667,0-10.261,4.594-10.261,10.261s4.594,10.261,10.261,10.261h0.134 c5.667,0,10.261-4.594,10.261-10.261S286.94,442.741,281.273,442.741z"></path> <path d="M352.962,442.741h-38.494c-5.667,0-10.261,4.594-10.261,10.261s4.594,10.261,10.261,10.261h38.494 c5.667,0,10.261-4.594,10.261-10.261S358.629,442.741,352.962,442.741z"></path> <path d="M451.463,406.159c33.381,0,60.537-27.157,60.537-60.537s-27.157-60.537-60.537-60.537s-60.537,27.157-60.537,60.537 S418.082,406.159,451.463,406.159z M451.463,305.606c22.065,0,40.016,17.951,40.016,40.016c0,22.065-17.951,40.016-40.016,40.016 c-22.065,0-40.016-17.951-40.016-40.016C411.447,323.556,429.398,305.606,451.463,305.606z"></path> <path d="M435.374,355.882h16.088c5.667,0,10.261-4.594,10.261-10.261v-28.658c0-5.667-4.594-10.261-10.261-10.261 s-10.26,4.594-10.26,10.261v18.397h-5.828c-5.667,0-10.261,4.594-10.261,10.26S429.708,355.882,435.374,355.882z"></path> <path d="M45.146,266.393c0-5.667-4.594-10.261-10.261-10.261s-10.261,4.594-10.261,10.261c0,15.45,10.382,28.552,24.625,32.883 v6.437c0,5.667,4.594,10.26,10.261,10.26s10.261-4.594,10.261-10.26v-6.437c14.244-4.331,24.625-17.433,24.625-32.883 c0-15.449-10.382-28.551-24.625-32.883v-25.1c2.534,2.505,4.104,5.925,4.104,9.697c0,5.667,4.594,10.261,10.261,10.261 c5.667,0,10.261-4.594,10.261-10.261c0-15.45-10.382-28.552-24.625-32.883v-8.793c0-5.667-4.594-10.261-10.261-10.261 s-10.261,4.594-10.261,10.261v8.793c-14.244,4.331-24.625,17.433-24.625,32.883s10.382,28.552,24.625,32.883v25.1 C46.716,273.586,45.146,270.165,45.146,266.393z M69.772,256.696c2.534,2.505,4.104,5.925,4.104,9.697 c0,3.772-1.57,7.193-4.104,9.697V256.696z M45.146,218.107c0-3.772,1.57-7.193,4.104-9.697v19.394 C46.716,225.299,45.146,221.879,45.146,218.107z"></path> <path d="M459.176,486.862h-56.924v-69.376c0-20-12.07-38.997-29.352-46.198l-8.635-3.597c13.295-20.669,20.506-44.889,20.506-69.481 V162.116c0-29.969-10.52-58.914-29.703-82.026l3.997-38.625c0.423-4.082-1.627-8.022-5.211-10.019 C322.428,13.936,286.836,4.658,250.925,4.617c-0.08,0-0.156,0-0.235,0c-35.4,0-70.567,9.005-101.707,26.045 c-3.617,1.979-5.698,5.931-5.283,10.032l3.98,39.421c-19.171,23.107-29.684,52.043-29.684,82.001v136.092 c0,24.592,7.211,48.813,20.506,69.481l-8.635,3.598c-3.129,1.304-6.084,2.999-8.83,5.012v-9.487c0-5.667-4.594-10.261-10.261-10.261 H10.261C4.594,356.553,0,361.147,0,366.814v63.615c0,5.667,4.594,10.261,10.261,10.261h32.834v46.197 c-5.435,0.261-9.765,4.736-9.765,10.236c0,5.667,4.594,10.261,10.261,10.261h415.586c5.667,0,10.261-4.594,10.261-10.261 S464.843,486.862,459.176,486.862z M100.514,486.862H63.615v-46.172h36.899C100.514,440.689,100.514,486.862,100.514,486.862z M100.514,395.543H65.84c-5.667,0-10.261,4.594-10.261,10.261s4.594,10.261,10.261,10.261h34.674v4.104H20.521v-43.094h79.993 V395.543z M250.689,25.138c0.07,0,0.143,0,0.213,0c30.196,0.035,60.144,7.301,87.04,21.071l-2.828,27.328H167.641l-2.828-28.007 C191.425,32.169,220.965,25.138,250.689,25.138z M299.956,94.057c-10.199,4.668-26.562,8.854-48.573,8.854 s-38.374-4.186-48.573-8.854H299.956z M138.517,162.116c0-24.796,8.58-48.774,24.256-68.059h9.469 c9.189,19.328,44.349,29.375,79.14,29.375s69.951-10.047,79.14-29.375h9.47c15.677,19.286,24.255,43.261,24.255,68.059v136.092 c0,21.883-6.821,43.412-19.305,61.431l-38.081-15.867c-2.348-0.978-3.865-3.254-3.865-5.798v-15.978l26.82-15.378 c0.187-0.107,0.37-0.221,0.551-0.34c13.397-8.848,22.206-24.566,23.579-42.065c0.025-0.285,0.039-0.575,0.04-0.866 c0-0.001,0-0.003,0-0.004c0-0.002,0-0.005,0-0.007c0-0.003,0-0.006,0-0.009c0-0.001,0-0.004,0-0.005c0-0.005,0-0.009,0-0.014 v-93.022c0-5.667-4.594-10.261-10.26-10.261H159.038c-5.667,0-10.261,4.594-10.261,10.261v93.022c0,0.261,0.01,0.522,0.03,0.782 c1.347,17.621,10.104,33.393,23.424,42.19c0.184,0.121,0.371,0.236,0.562,0.346l26.974,15.421v15.928 c0,2.544-1.518,4.819-3.866,5.798l-38.08,15.867c-12.483-18.018-19.304-39.548-19.304-61.431V162.116z M251.383,381.61 l-33.19-33.258c1.35-3.222,2.095-6.731,2.095-10.376v-4.198l7.796,4.457c7.202,4.678,15.25,7.016,23.3,7.016 c8.051,0,16.102-2.34,23.306-7.02l7.789-4.465v4.211c0,3.646,0.745,7.156,2.095,10.376L251.383,381.61z M276.507,385.486 l-4.629,15.792l-5.752-5.389L276.507,385.486z M236.639,395.888l-5.752,5.389l-4.629-15.792L236.639,395.888z M264.219,320.579 c-0.188,0.108-0.37,0.221-0.551,0.34c-7.691,5.08-16.877,5.08-24.568,0c-0.184-0.121-0.371-0.237-0.562-0.346l-55.249-31.585 c-7.841-5.309-13.045-15.017-13.989-26.092v-82.348h164.168v82.347c-0.932,10.851-6.327,20.794-14.159,26.098L264.219,320.579z M381.73,486.862H121.035v-69.376c0-11.565,7.19-23.282,16.724-27.255l61.05-25.438l17.076,58.261 c1.002,3.42,3.707,6.074,7.144,7.012c0.892,0.243,1.8,0.362,2.701,0.362c2.572,0,5.089-0.969,7.015-2.773l18.638-17.459 l18.636,17.46c1.926,1.805,4.443,2.773,7.015,2.773c0.901,0,1.809-0.119,2.701-0.362c3.438-0.938,6.143-3.592,7.144-7.012 l17.076-58.261l61.051,25.437c9.534,3.973,16.724,15.689,16.724,27.255v69.377H381.73z"></path> <path d="M288.752,235.843c-6.325,0-11.469-5.145-11.469-11.468c0-6.325,5.145-11.469,11.469-11.469 c6.325,0,11.469,5.145,11.469,11.469C300.221,230.699,295.076,235.843,288.752,235.843z"></path> <path d="M213.913,235.843c-6.325,0-11.469-5.145-11.469-11.468c0-6.325,5.145-11.469,11.469-11.469s11.469,5.145,11.469,11.469 C225.383,230.699,220.238,235.843,213.913,235.843z"></path> <path d="M251.376,291.796c-11.186,0-20.287-9.101-20.287-20.287c0-5.667,4.594-10.26,10.261-10.26h20.053 c5.667,0,10.261,4.594,10.261,10.26C271.663,282.696,262.562,291.796,251.376,291.796z"></path> </g></svg>