<svg height="200px" width="200px" version="1.1" id="Layer_1" xmlns="http://www.w3.org/2000/svg" xmlns:xlink="http://www.w3.org/1999/xlink" viewBox="0 0 505.539 505.539" xml:space="preserve" fill="#000000"><g id="SVGRepo_bgCarrier" stroke-width="0"></g><g id="SVGRepo_tracerCarrier" stroke-linecap="round" stroke-linejoin="round"></g><g id="SVGRepo_iconCarrier"> <g transform="translate(1 1)"> <g> <path style="fill:#ECF4F7;" d="M490.805,473.5c-7.7-23.9-8.5-42.7-128-42.7l-34.2-17c0,0-42.7,25.6-76.8,25.6 s-76.8-25.6-76.8-25.6l-34.1,17c-119.5,0-120.3,18.8-128,42.7l-8.5,25.6h494.9L490.805,473.5z"></path> <path style="fill:#ECF4F7;" d="M337.205,21.2c0,0-18.8,1.7-26.5,8.5l-0.9,0.9c-13.7-16.2-35-26.5-58-26.5s-43.5,10.2-58,26.5 l-0.9-0.9c-11.1-11.1-26.5-8.5-26.5-8.5c-33.3,0-59.7,26.5-59.7,59.7c0,23.9,13.7,44.4,34.1,53.8v0.9v47.8 c25.6,25.6,68.3,25.6,110.9,25.6s85.3,0,110.9-25.6v-47.8h-0.9c-6.8,1.7-62.3,22.2-110.1,22.2v-0.9c47.8,0,103.3-19.6,110.1-22.2 c0.9,0,0.9,0,0.9,0c20.5-9.4,34.1-29.9,34.1-53.8C396.905,47.7,370.505,21.2,337.205,21.2z"></path> </g> <g> <path style="fill:#FFD0A1;" d="M303.005,499.1c5.1,0,8.5-3.4,8.5-8.5s-3.4-8.5-8.5-8.5s-8.5,3.4-8.5,8.5 S297.905,499.1,303.005,499.1z M200.605,499.1c5.1,0,8.5-3.4,8.5-8.5s-3.4-8.5-8.5-8.5s-8.5,3.4-8.5,8.5 S195.505,499.1,200.605,499.1z"></path> <path style="fill:#FFD0A1;" d="M379.805,226v17.1c0,9.4-7.7,17.1-17.1,17.1c0,0-8.5,59.7-25.6,85.3 c-10.2,16.2-25.6,51.2-85.3,51.2s-75.1-35-85.3-51.2c-17.1-25.6-25.6-85.3-25.6-85.3c-9.4,0-17.1-7.7-17.1-17.1V226 c0,0,0-17.1,17.1-17.1v-25.6c25.6,25.6,68.3,25.6,110.9,25.6s85.3,0,110.9-25.6v25.6C379.805,209,379.805,226,379.805,226"></path> </g> </g> <g> <path style="fill:#51565F;" d="M295.505,256.9c2.6,0,4.3-1.7,4.3-4.3v-4.3h12.8c2.6,0,4.3-1.7,4.3-4.3s-1.7-4.3-4.3-4.3h-34.1 c-2.6,0-4.3,1.7-4.3,4.3s1.7,4.3,4.3,4.3h12.8v4.3C291.205,255.2,293.005,256.9,295.505,256.9z"></path> <path style="fill:#51565F;" d="M244.305,342.2c-2.6,0-4.3,1.7-4.3,4.3c0,2.6,1.7,4.3,4.3,4.3h17.1c2.6,0,4.3-1.7,4.3-4.3 c0-2.6-1.7-4.3-4.3-4.3H244.305z"></path> <path style="fill:#51565F;" d="M227.205,239.8h-34.1c-2.6,0-4.3,1.7-4.3,4.3s1.7,4.3,4.3,4.3h12.8v4.3c0,2.6,1.7,4.3,4.3,4.3 s4.3-1.7,4.3-4.3v-4.3h12.8c2.6,0,4.3-1.7,4.3-4.3S229.805,239.8,227.205,239.8z"></path> <path style="fill:#51565F;" d="M137.605,138.3v46.1c0,1.7,0,2.6,0.9,3.4c27.3,26.5,71.7,26.5,114.3,26.5s87,0,114.3-25.6 c0-0.9,0.9-2.6,0.9-3.4v-16.2c0-2.6-1.7-4.3-4.3-4.3c-2.6,0-4.3,1.7-4.3,4.3v14.5c-24.7,23-66.6,23-106.7,23s-81.9,0-106.7-23 v-46.9c0-1.7-0.9-3.4-2.6-4.3c-18.8-9.4-31.6-29-31.6-50.3c0-30.7,24.7-55.5,55.5-55.5c2.6,0,4.3-1.7,4.3-4.3s-1.7-4.3-4.3-4.3 c-35,0-64,29-64,64C103.505,105,117.205,127.2,137.605,138.3z"></path> <path style="fill:#51565F;" d="M182.905,51.3c2.6,0.9,5.1,0,6-1.7c11.9-24.8,37.5-40.2,64.8-40.2s52.9,15.4,64.9,40.1 c0,1.7,1.7,2.6,3.4,2.6c0.9,0,0.9,0,2.6-0.9c1.7-1.7,2.6-4.3,1.7-6c-13.7-28.2-41.8-45.2-72.5-45.2s-59,18-72.6,45.3 C180.305,47.8,181.205,50.4,182.905,51.3z"></path> <path style="fill:#51565F;" d="M201.605,478.8c-6.8,0-12.8,6-12.8,12.8s6,12.8,12.8,12.8s12.8-6,12.8-12.8 C214.405,484.7,208.505,478.8,201.605,478.8z M201.605,495.8c-2.6,0-4.3-1.7-4.3-4.3c0-2.6,1.7-4.3,4.3-4.3s4.3,1.7,4.3,4.3 S204.205,495.8,201.605,495.8z"></path> <path style="fill:#51565F;" d="M503.705,500.1c0-0.1-9.4-29-9.4-29c-8.5-26.5-18.8-42.7-129.7-42.7c-5.1-2.6-33.3-16.2-33.3-16.2 c-1.7-0.9-3.4-0.9-4.3,0c0,0-41.8,24.7-74.2,24.7s-74.2-24.7-74.2-24.7c-1.7-0.9-2.6-0.9-4.3,0l-33.3,16.2 c-110.1,0-121.2,16.2-129.7,42.7l-9.4,29c-0.9,1.7,0,4.3,2.6,5.1c1.7,0.9,4.3,0,5.1-2.6l9.4-29c6.8-20.5,11.9-36.7,122.9-36.7 c0-0.9,0.9-0.9,1.7-0.9l32.4-16.2c8.5,5.1,46.1,24.7,76.8,24.7s67.4-19.6,76.8-24.7c23.9,11.9,31.6,15.4,34.1,16.2 c110.9,0,116.1,16.2,122.9,36.7l9.4,29c1,3.4,3.2,3.9,5.2,3.3C503.105,504.6,504.605,502.8,503.705,500.1z"></path> <path style="fill:#51565F;" d="M250.305,316.6c-8.5-5.1-16.2-6-21.3-3.4c-8.5,4.3-8.5,16.2-8.5,17.1c0,1.7-0.9,5.1-2.6,6 c-1.7,0.9-5.1,0-8.5-1.7c-2.6-0.9-5.1,0-6,1.7c-0.9,2.6,0,5.1,1.7,6c6.8,3.4,12.8,3.4,17.1,0.9c6.8-4.3,6.8-12.8,6.8-13.7 c0-1.7,0.9-7.7,4.3-9.4c3.4-1.7,8.5,0,15.4,4.3c1.7,0.9,3.4,0.9,5.1,0c6.8-4.3,12.8-6,15.4-4.3c3.4,1.7,4.3,7.7,4.3,9.4 c0,0.9,0.9,9.4,6.8,13.7c2.6,0.9,4.3,1.7,6.8,1.7c3.4,0,6.8-0.9,8.5-2.6s2.6-4.3,1.7-6c-1.7-1.7-4.3-2.6-6-1.7 c-4.3,2.6-6.8,2.6-8.5,1.7s-2.6-4.3-2.6-6c0-0.9,0-12.8-8.5-17.1C266.505,309.8,258.805,311.5,250.305,316.6z"></path> <path style="fill:#51565F;" d="M173.505,145.1c1.7,0.9,27.3,17.9,79.4,17.9c51.2,0,110.1-22.2,112.6-23 c22.2-11.1,36.7-33.3,36.7-58c0-35-29-64-64-64c-2.6,0-4.3,1.7-4.3,4.3s1.7,4.3,4.3,4.3c30.7,0,55.5,24.7,55.5,55.5 c0,21.3-12.8,41-31.6,50.3c0,0-59.7,22.2-109.2,22.2c-48.6,0-74.2-16.2-74.2-16.2c-1.7-1.7-4.3-0.9-6,0.9 C170.905,140.9,171.805,143.4,173.505,145.1z"></path> <path style="fill:#51565F;" d="M141.905,214.2c2.6,0,4.3-1.7,4.3-4.3s-1.7-4.3-4.3-4.3c-17.1,0-21.3,13.7-21.3,21.3V244 c0,11.1,7.7,19.6,17.9,21.3c1.7,12.8,10.2,60.6,25.6,83.6c0.9,1.7,2.6,3.4,3.4,5.1c11.1,17.9,29,47.8,85.3,47.8 s74.2-29.9,85.3-47.8c0.9-1.7,2.6-3.4,3.4-5.1c15.4-23,23.9-70.8,25.6-83.6c10.2-1.7,17.9-11.1,17.9-21.3v-17.1 c0-7.7-4.3-21.3-21.3-21.3c-2.6,0-4.3,1.7-4.3,4.3s1.7,4.3,4.3,4.3c11.9,0,12.8,11.1,12.8,12.8v17.1c0,6.8-6,12.8-12.8,12.8 c-2.6,0-4.3,1.7-4.3,3.4c0,0.9-8.5,58.9-24.7,83.6c-0.9,1.7-2.6,4.3-3.4,6c-11.1,17.1-27.3,43.5-78.5,43.5s-67.4-26.5-78.5-43.5 c-0.9-2.6-2.6-4.3-3.4-6c-16.2-24.7-24.7-82.8-24.7-83.6c0-1.7-2.6-3.4-4.3-3.4c-6.8,0-12.8-6-12.8-12.8V227 C129.105,225.3,130.005,214.2,141.905,214.2z"></path> <path style="fill:#51565F;" d="M304.005,478.8c-6.8,0-12.8,6-12.8,12.8s6,12.8,12.8,12.8s12.8-6,12.8-12.8 C316.805,484.7,310.905,478.8,304.005,478.8z M304.005,495.8c-2.6,0-4.3-1.7-4.3-4.3c0-2.6,1.7-4.3,4.3-4.3c2.6,0,4.3,1.7,4.3,4.3 S306.605,495.8,304.005,495.8z"></path> </g> </g></svg>