<svg width="38" height="38" viewBox="0 0 38 38" fill="none" xmlns="http://www.w3.org/2000/svg">
<path d="M14.4989 32.888V28.0324C14.4989 26.7973 15.5057 25.7938 16.7532 25.7855H21.3229C22.5763 25.7855 23.5924 26.7915 23.5924 28.0324V28.0324V32.9031C23.5922 33.9517 24.4375 34.8087 25.4965 34.8333H28.5429C31.5798 34.8333 34.0416 32.3961 34.0416 29.3896V29.3896V15.5766C34.0254 14.3938 33.4645 13.2831 32.5184 12.5606L22.0997 4.25172C20.2745 2.80497 17.6798 2.80497 15.8546 4.25172L5.48152 12.5757C4.53189 13.2953 3.97001 14.4078 3.95831 15.5916V29.3896C3.95831 32.3961 6.4202 34.8333 9.45709 34.8333H12.5035C13.5887 34.8333 14.4684 33.9624 14.4684 32.888V32.888" stroke="black" stroke-width="3" stroke-linecap="round" stroke-linejoin="round"/>
</svg>
