<svg width="38" height="38" viewBox="0 0 38 38" fill="none" xmlns="http://www.w3.org/2000/svg">
<rect width="38" height="38" fill="white"/>
<path fill-rule="evenodd" clip-rule="evenodd" d="M4.75 10.2917C4.75 6.13508 4.79451 4.75 10.2917 4.75C15.7888 4.75 15.8333 6.13508 15.8333 10.2917C15.8333 14.4483 15.8509 15.8333 10.2917 15.8333C4.73247 15.8333 4.75 14.4483 4.75 10.2917Z" stroke="black" stroke-width="1.5" stroke-linecap="round" stroke-linejoin="round"/>
<path fill-rule="evenodd" clip-rule="evenodd" d="M22.1667 10.2917C22.1667 6.13508 22.2112 4.75 27.7083 4.75C33.2055 4.75 33.25 6.13508 33.25 10.2917C33.25 14.4483 33.2675 15.8333 27.7083 15.8333C22.1491 15.8333 22.1667 14.4483 22.1667 10.2917Z" stroke="black" stroke-width="1.5" stroke-linecap="round" stroke-linejoin="round"/>
<path fill-rule="evenodd" clip-rule="evenodd" d="M4.75 27.7084C4.75 23.5518 4.79451 22.1667 10.2917 22.1667C15.7888 22.1667 15.8333 23.5518 15.8333 27.7084C15.8333 31.8649 15.8509 33.25 10.2917 33.25C4.73247 33.25 4.75 31.8649 4.75 27.7084Z" stroke="black" stroke-width="1.5" stroke-linecap="round" stroke-linejoin="round"/>
<path fill-rule="evenodd" clip-rule="evenodd" d="M22.1667 27.7084C22.1667 23.5518 22.2112 22.1667 27.7083 22.1667C33.2055 22.1667 33.25 23.5518 33.25 27.7084C33.25 31.8649 33.2675 33.25 27.7083 33.25C22.1491 33.25 22.1667 31.8649 22.1667 27.7084Z" stroke="black" stroke-width="1.5" stroke-linecap="round" stroke-linejoin="round"/>
</svg>
