<svg viewBox="-6.88 0 357.246 357.246" xmlns="http://www.w3.org/2000/svg" fill="#000000"><g id="SVGRepo_bgCarrier" stroke-width="0"></g><g id="SVGRepo_tracerCarrier" stroke-linecap="round" stroke-linejoin="round"></g><g id="SVGRepo_iconCarrier"><defs><style>.a{fill:#ffffff;}.b{fill:#85807f;}.c{fill:#211715;}.d{fill:#b3b3b3;}.e{fill:#3d8dcc;}</style></defs><path class="a" d="M263.859,61.552c-5.819-11.235-18.351-22.13-45.076-22.13-59.333,0-52.68,46.428-52.68,46.428a8.017,8.017,0,0,0-5.794-2.121c-4.154.146-5.921,2.393-6.681,3.712-2.27,3.937-2.174,11.192-.651,15.68,1.08,3.179,2.847,8.042,7.109,11.529a8.658,8.658,0,0,0,7.37,1.844,60.942,60.942,0,0,0,11.566,21.822,48.746,48.746,0,0,0,12.8,11.24c-.02,5.583-.464,11.549-4.514,14.421-5.168,5.812-14.51,10.8-12.315,9.414.234.713.407,1.253.407,1.253s8.333,26,43.333,26,43.474-27.04,43.474-27.04c-.851-.373-11.918-6.742-16.2-12.638l-.893-2.212c-1.121-2.777-1.364-6.23-1.4-9.609,11.021-7.133,19.52-21.875,21.142-26.278a51.827,51.827,0,0,0,2.344-6.361l.653.11a8.828,8.828,0,0,0,6.812-1.966c4.262-3.487,6.03-8.35,7.109-11.529,1.524-4.488,1.62-11.743-.65-15.68-.761-1.319-2.528-3.566-6.681-3.712a8.014,8.014,0,0,0-5.794,2.121A46.893,46.893,0,0,0,263.859,61.552Z"></path><path class="b" d="M272.776,35.164a45.843,45.843,0,0,0-8.818-10.348l-8.188-7.278c-10.613-11.827-24.721-15.1-38.625-15.1A63.018,63.018,0,0,0,178.14,15.263a56.939,56.939,0,0,0-10.992,11.448c-7.126,6.974-12.812,22.212-12.386,37.323a79.207,79.207,0,0,0,2.49,20.283,9.323,9.323,0,0,1,3.057-.588A8.017,8.017,0,0,1,166.1,85.85l2.3,1.61a85.77,85.77,0,0,1,1-9.211c1.066-6.475,7.785-9.46,10.64-15.24,1.644-3.329,2.623-7.221,5.437-9.59,2.118-1.784,4.945-2.389,7.673-2.676,4.224-.445,18.51.192,23.289,1.074,4.042.227,7.96,1.035,13.725,1.768,3.127.4,8.927,1.422,11.145,1.867,8.723,2.005,12.065,4.183,16.446,10.118,1.68,2.275,3.467,6.427,5.121,11.83l5.765,8.45a8.014,8.014,0,0,1,5.794-2.121,9.508,9.508,0,0,1,2.841.508c1.9-7.559,2.71-13.244,2.416-20.2C279.129,50.682,276.928,42.036,272.776,35.164Z"></path><path class="c" d="M208.834,128.968a20.656,20.656,0,0,0,9.953,2.3c3.551-.023,7.157-.714,10-2.932a2.413,2.413,0,0,0,0-3.394,2.462,2.462,0,0,0-3.394,0c.715-.557.113-.1-.07.019q-.3.194-.623.36c-.155.082-.9.386-.279.154-.285.107-.568.218-.858.312a14.45,14.45,0,0,1-5.1.681,15.017,15.017,0,0,1-4.867-.655c-.314-.094-.62-.207-.93-.313-.1-.035-.2-.087-.3-.117.6.173.193.087.03.01-.385-.181-.764-.371-1.141-.569a2.452,2.452,0,0,0-3.283.861,2.426,2.426,0,0,0,.861,3.283Z"></path><path class="c" d="M217.665,105.393a47.054,47.054,0,0,1,1.111,5.084l-.085-.638a3.171,3.171,0,0,1,.019.7l.085-.638a1.628,1.628,0,0,1-.077.315l.242-.573a1.211,1.211,0,0,1-.111.2l.375-.486a1.03,1.03,0,0,1-.166.164l.486-.375a3.368,3.368,0,0,1-.4.213l.573-.242a2.963,2.963,0,0,1-.678.2l.638-.086a2.662,2.662,0,0,1-.637,0l.638.086c-.241-.034-.476-.092-.717-.124a2.649,2.649,0,0,0-1.849.241,2.4,2.4,0,0,0-.861,3.284,2.3,2.3,0,0,0,1.434,1.1c.529.071,1.042.206,1.579.23a5.01,5.01,0,0,0,2.3-.544,3.279,3.279,0,0,0,1.83-2.167,5.511,5.511,0,0,0-.024-2.357c-.277-1.638-.655-3.261-1.076-4.868a2.4,2.4,0,0,0-4.629,1.276Z"></path><path class="c" d="M190.478,91.051c-.849,2.759-.3,9.105,4.931,9.646,6.909-.042,7.276-7.715,4.951-11.323C198.456,86.42,192.857,85.192,190.478,91.051Z"></path><path class="c" d="M246.012,91.051c.849,2.759.3,9.106-4.931,9.646-6.908-.042-7.276-7.715-4.951-11.323C238.034,86.42,243.633,85.192,246.012,91.051Z"></path><path class="c" d="M167.8,84.153a11.1,11.1,0,0,0-12.2-1.72c-3,1.429-4.721,4.384-5.478,7.513-1.775,7.345.086,15.7,4.293,21.926,3.046,4.508,7.453,7.843,13.125,7.058a2.414,2.414,0,0,0,1.676-2.952,2.463,2.463,0,0,0-2.952-1.676c-3.193.442-5.954-2.309-7.6-4.7a27.657,27.657,0,0,1-3.467-7.419,22.407,22.407,0,0,1-.817-8.782,13.518,13.518,0,0,1,.908-3.937,8.784,8.784,0,0,1,.685-1.252c.087-.137.352-.449.1-.153.171-.2.353-.393.543-.579a4.437,4.437,0,0,1,1.4-.906,6.544,6.544,0,0,1,1.87-.427,5.86,5.86,0,0,1,4.518,1.4c2.282,2.072,5.687-1.312,3.394-3.394Z"></path><path class="c" d="M270.339,87.547a5.663,5.663,0,0,1,8.192.351c.319.33-.1-.185.138.163.131.194.258.389.375.591a11.159,11.159,0,0,1,1.2,3.772,24.159,24.159,0,0,1-3.452,16.082c-1.673,2.773-4.651,6.3-8.308,5.8a2.482,2.482,0,0,0-2.952,1.676,2.417,2.417,0,0,0,1.676,2.952c9.259,1.281,14.677-8,17.017-15.619a26.836,26.836,0,0,0,.676-11.986c-.521-3.237-1.887-6.34-4.643-8.252a11.011,11.011,0,0,0-13.314,1.08c-2.292,2.081,1.111,5.467,3.395,3.394Z"></path><path class="c" d="M265.846,112.1a67.011,67.011,0,0,1-3.512,10.637c.108-.28.108-.235-.072.151-.092.2-.182.4-.275.592-.243.509-.5,1.012-.761,1.511-.649,1.233-1.345,2.443-2.072,3.632a63.817,63.817,0,0,1-13.841,16.408,25.491,25.491,0,0,1-10.238,5.3c-3.009.693-1.735,5.322,1.276,4.629,7.757-1.786,14.208-7.469,19.268-13.355a69.563,69.563,0,0,0,10.788-16.3c.166-.368.324-.739.478-1.112a4.681,4.681,0,0,0,.182-.451c-.185.433.132-.284.134-.288.137-.311.267-.624.4-.938q.325-.786.625-1.583a50.65,50.65,0,0,0,2.252-7.563,2.459,2.459,0,0,0-1.677-2.952,2.423,2.423,0,0,0-2.952,1.676Z"></path><path class="c" d="M164.123,113.2a64.053,64.053,0,0,0,9.013,21.217c4.605,6.933,10.658,13.422,17.981,17.512a35.659,35.659,0,0,0,12.176,4.166,2.479,2.479,0,0,0,2.952-1.676,2.417,2.417,0,0,0-1.676-2.952c-15.24-2.245-26.624-15.444-32.43-28.968a60.89,60.89,0,0,1-3.388-10.575c-.681-3.012-5.31-1.737-4.628,1.276Z"></path><path class="c" d="M257.467,15.841A47.69,47.69,0,0,0,230.141,1.134,72.155,72.155,0,0,0,198.2,2.58a62.3,62.3,0,0,0-26.847,15.5,56.948,56.948,0,0,0-5.669,6.565c-1.274,1.735-2.833,3.24-4.061,5.036A51.45,51.45,0,0,0,155.1,43.865a64.8,64.8,0,0,0-2.754,19.72,88.682,88.682,0,0,0,2.381,20.6c.764,2.991,5.4,1.723,4.628-1.276a76.183,76.183,0,0,1-2.172-17.2,66.273,66.273,0,0,1,1.453-16.436A53.4,53.4,0,0,1,163.9,35.127a31.532,31.532,0,0,1,3.483-5.153c.69-.808,1.448-1.531,2.073-2.393.8-1.105,1.651-2.165,2.552-3.192A56.421,56.421,0,0,1,196.036,8.3a67.178,67.178,0,0,1,29.558-3.008c10.93,1.219,21.039,5.734,28.479,13.946,2.079,2.294,5.465-1.109,3.394-3.394Z"></path><path class="c" d="M279.757,84.183a74.606,74.606,0,0,0,2.382-16.222,93.98,93.98,0,0,0-1.076-15.291c-1.064-7.363-3.277-14.649-7.57-20.8a52.288,52.288,0,0,0-7.838-8.75c-2.284-2.071-5.688,1.314-3.394,3.4,4.685,4.25,8.613,9.026,10.947,14.8,3.1,7.684,4.011,16.267,4.136,24.49a67.2,67.2,0,0,1-2.216,17.1c-.735,3,3.893,4.28,4.629,1.276Z"></path><path class="c" d="M217.078,49.5a95.316,95.316,0,0,0-12.491-1.121,74.232,74.232,0,0,0-11.826,0c-3.116.36-6.176,1.089-8.673,3.089-2.291,1.834-3.583,4.479-4.706,7.123a23.556,23.556,0,0,1-3.755,6.623c-1.632,1.863-3.49,3.518-5.052,5.443a16.483,16.483,0,0,0-3.7,8.3c-.48,3.2-.714,6.405-.967,9.626a2.421,2.421,0,0,0,2.4,2.4,2.448,2.448,0,0,0,2.4-2.4c.365-4.641.079-10.184,2.939-14.1,2.8-3.837,6.759-6.538,8.8-10.962,1.09-2.363,1.878-4.994,3.463-7.094,1.526-2.023,3.9-2.791,6.317-3.168a56.65,56.65,0,0,1,10.731-.148c2.464.093,4.928.226,7.387.417,1.116.086,2.232.184,3.346.306.2.022.407.045.61.07.107.012.914.121.37.044q.569.079,1.133.18a2.466,2.466,0,0,0,2.952-1.676,2.421,2.421,0,0,0-1.676-2.952Z"></path><path class="c" d="M240.672,57.766a38.7,38.7,0,0,1,7.451,2.344,15.6,15.6,0,0,1,4.963,3.577c3.866,3.985,5.831,9.018,7.476,14.351.908,2.942,5.543,1.687,4.629-1.276a58.943,58.943,0,0,0-3.921-10.044,28.347,28.347,0,0,0-4.79-6.425c-3.943-4.066-9.127-5.9-14.532-7.155-3.006-.7-4.289,3.929-1.276,4.628Z"></path><path class="c" d="M232.8,51.951c-.79-3.363-3.43-6.229-6.078-8.289a30.668,30.668,0,0,0-15.089-5.918,2.412,2.412,0,0,0-2.4,2.4,2.462,2.462,0,0,0,2.4,2.4,28.255,28.255,0,0,1,7.057,1.9c-.276-.114.342.152.4.177.273.124.544.254.813.387q.721.36,1.421.763.665.385,1.3.813c.221.148.44.3.655.454.078.056.595.442.222.155a19.381,19.381,0,0,1,2,1.779q.4.4.767.832c.137.158.269.321.4.483q.165.209-.109-.142c.068.09.136.181.2.273a13.845,13.845,0,0,1,1.042,1.719c.061.123.11.256.176.376-.322-.586-.1-.274-.046-.086.081.269.174.529.239.8a2.4,2.4,0,1,0,4.628-1.276Z"></path><path class="a" d="M79.491,189.562c-2.931-7.054-5.235-11.376-9.023-18.684-.239-.462-1.921-2.807-3.517-3.268a4.1,4.1,0,0,0-4.091,1.053,5.311,5.311,0,0,0-1.668,3.8,50.023,50.023,0,0,0,2.235,14.653c-8.493-1.14-25.5-9.214-34.573-14.008-2.179-1.151-4.347-2.47-6.795-2.816-2.525-.369-6.993,1.377-7.876,3.8-3.445-1.667-5.323-1.634-7.469-.818-2.548.972-3.3,1.989-3.8,3.43a6.188,6.188,0,0,0,.228,4.963,1.752,1.752,0,0,1,.223.693,1.444,1.444,0,0,1-.246.693,7.721,7.721,0,0,0,1.8,8.963,4.266,4.266,0,0,0,.453,5.006c6.568,7.457,30.031,21.148,43.439,26.317a5.955,5.955,0,0,1,2.056,1.095,5.887,5.887,0,0,1,1.33,2.38c.836,2.287,1.461,3.9,2.147,5.964,6.088-1.691,20.65-5.811,28.808-8.858a48.627,48.627,0,0,1-1.615-7.143l-.155-1.823c1.446-7.921,1.984-15.789-1.036-23.3Q79.909,190.568,79.491,189.562Z"></path><path class="c" d="M61.409,184.291c-6.776-1.639-13.277-4.526-19.583-7.444q-4.861-2.251-9.629-4.7c-3.355-1.727-6.885-4.228-10.785-4.3-3.779-.072-8.062,2.04-9.543,5.612l3.526-1.435a13.785,13.785,0,0,0-6.175-1.688,11.285,11.285,0,0,0-5.457,1.7A7.371,7.371,0,0,0,.6,176.066a8.691,8.691,0,0,0-.46,3.557A29.22,29.22,0,0,0,1.053,183v-1.276c-.176.824-.679,1.58-.846,2.435a10.083,10.083,0,0,0-.146,3.114,10.641,10.641,0,0,0,2.683,5.973c2.053,2.316,5.438-1.089,3.394-3.394A5.472,5.472,0,0,1,4.9,185.122c.26-1.154,1.06-2.1.779-3.4-.26-1.21-.952-2.126-.723-3.427a6.716,6.716,0,0,1,.2-.738c.008-.027.264-.664.106-.329a3.558,3.558,0,0,1,.387-.624,5.289,5.289,0,0,1,2.114-1.164c1.775-.59,3.371-.14,5.2.724A2.456,2.456,0,0,0,16.5,174.73c-.086.207.151-.147.162-.159a4.889,4.889,0,0,1,.524-.5,6.9,6.9,0,0,1,1.566-.866,5.617,5.617,0,0,1,3.733-.39c3.124.8,6.02,2.836,8.888,4.285,6.166,3.116,12.452,6.032,18.884,8.557a76.327,76.327,0,0,0,9.878,3.26c3,.726,4.282-3.9,1.276-4.629Z"></path><path class="c" d="M6.836,193.565c.022-.163.106-.333-.046-.119-.1.137-.228-.082.2-.1a6.756,6.756,0,0,1,.74-.123c.97.026,2.081.856,2.933,1.281,2.466,1.233,4.917,2.5,7.386,3.726a90.769,90.769,0,0,0,14.8,6.2c2.971.867,4.24-3.763,1.276-4.629-5.877-1.716-11.363-4.548-16.8-7.305-1.347-.683-2.693-1.369-4.044-2.045a18.414,18.414,0,0,0-4.233-1.869c-2.613-.542-6.416.649-6.828,3.709a2.484,2.484,0,0,0,1.676,2.953,2.417,2.417,0,0,0,2.952-1.677Z"></path><path class="c" d="M5.549,183.745a2.378,2.378,0,0,1,2.171-.174c1.24.517,2.454,1.118,3.667,1.7,2.9,1.39,5.806,2.76,8.753,4.052,5.271,2.309,10.475,4.779,15.8,6.955A2.417,2.417,0,0,0,38.9,194.6a2.46,2.46,0,0,0-1.677-2.952c-5.3-2.165-10.91-4.831-16.333-7.2-3.316-1.448-6.526-3.12-9.821-4.612a10.1,10.1,0,0,0-4.331-1.24,6.11,6.11,0,0,0-4.579,1.753,2.463,2.463,0,0,0,0,3.394,2.42,2.42,0,0,0,3.394,0Z"></path><path class="c" d="M2.208,192.289C.933,196.982,4.748,200.085,8,202.7a118.331,118.331,0,0,0,10.662,7.536A185.4,185.4,0,0,0,43.942,223.9c1.153.5,2.313.994,3.483,1.459,1.078.429,1.835.6,2.323,1.723a82.522,82.522,0,0,1,3.1,8.933c.891,2.949,5.525,1.692,4.629-1.276-.793-2.626-1.727-5.195-2.674-7.768a13.63,13.63,0,0,0-1.595-3.465,8.126,8.126,0,0,0-4.007-2.578,123.591,123.591,0,0,1-11.394-5.261,178.212,178.212,0,0,1-23.977-14.5,56.126,56.126,0,0,1-4.539-3.641c-1.144-1.027-2.924-2.247-2.457-3.965.811-2.984-3.818-4.258-4.628-1.276Z"></path><path class="c" d="M83.186,218.259c1.212-6.006,2.2-12.207,1.566-18.345-.622-6.023-3.016-11.455-5.519-16.9-1.03-2.244-2.121-4.459-3.24-6.659-1.161-2.282-2.213-4.74-3.584-6.9-1.164-1.835-2.985-3.766-5.183-4.24a6.869,6.869,0,0,0-7.3,3.327c-1.7,2.649-1.148,6.146-.845,9.114a50.775,50.775,0,0,0,2.1,10.37c.939,2.93,5.575,1.677,4.628-1.276a45.261,45.261,0,0,1-1.779-7.762c-.144-1.079-.242-2.166-.315-3.253a17.414,17.414,0,0,1-.12-3.668c.22-1.386,1.692-2.742,2.935-2.008,1.458.862,1.949,2.214,2.721,3.7,2.063,3.977,4.131,7.953,5.991,12.031,2,4.378,4.058,8.857,4.652,13.678.723,5.862-.187,11.78-1.345,17.521a2.461,2.461,0,0,0,1.676,2.953,2.424,2.424,0,0,0,2.953-1.677Z"></path><path class="c" d="M12.972,176.164c4.325,2.024,8.473,4.426,12.782,6.489,5.04,2.414,9.925,5.139,14.882,7.714,2.738,1.422,5.168-2.719,2.423-4.145-4.957-2.575-9.843-5.3-14.882-7.713-4.31-2.064-8.457-4.466-12.782-6.49a2.469,2.469,0,0,0-3.284.861,2.421,2.421,0,0,0,.861,3.284Z"></path><path class="c" d="M43.65,187.629Q36.47,193.6,29.894,200.254a2.4,2.4,0,1,0,3.394,3.4Q39.855,197,47.045,191.023a2.409,2.409,0,0,0,0-3.394,2.466,2.466,0,0,0-3.4,0Z"></path><path class="c" d="M34.908,204.908c2.565.054,5.127.172,7.684.369a35.824,35.824,0,0,1,6.7.889,12.456,12.456,0,0,1,7.856,6.665,2.425,2.425,0,0,0,3.284.861,2.451,2.451,0,0,0,.861-3.284,17.21,17.21,0,0,0-10-8.652,33.629,33.629,0,0,0-7.747-1.2q-4.314-.363-8.643-.446c-3.09-.064-3.089,4.736,0,4.8Z"></path><path class="c" d="M79.139,216.777c.339,3.741,1.6,7.38,2.589,10.985a2.4,2.4,0,0,0,4.629-1.276c-.475-1.735-.979-3.461-1.435-5.2-.238-.907-.466-1.818-.665-2.734-.088-.405-.17-.811-.241-1.219a2.123,2.123,0,0,1-.091-.576c0,.008.07.646.044.318-.008-.1-.021-.2-.03-.3a2.4,2.4,0,1,0-4.8,0Z"></path><path class="a" d="M52.949,233.166c5.288-1.46,24.142-6.715,32.247-10.042.779,1.954,2.359,6.728,3.353,9.3l.222.554c-10.255,3.987-24.081,8.609-34.153,10.385l-.061-.2c-.985-3.144-2.407-8.755-2.738-9.688Z"></path><path class="c" d="M240.925,149.424c.074,4.05.3,8.588,2.553,12.1a28.387,28.387,0,0,0,6.077,6.416,78.2,78.2,0,0,0,7.328,5.294,33.641,33.641,0,0,0,4.111,2.44,2.472,2.472,0,0,0,3.284-.861,2.418,2.418,0,0,0-.861-3.283,31.834,31.834,0,0,1-3.712-2.185,70.892,70.892,0,0,1-6.292-4.423,43.067,43.067,0,0,1-3.306-2.91,20.773,20.773,0,0,1-2.219-2.514,11.245,11.245,0,0,1-.922-1.572c.261.549-.189-.52-.2-.564-.175-.52-.319-1.051-.442-1.586a30.91,30.91,0,0,1-.595-6.354c-.056-3.085-4.856-3.095-4.8,0Z"></path><path class="c" d="M175.937,175.676a28.878,28.878,0,0,0,3.958-2.42,58.674,58.674,0,0,0,6.77-5.239,21.891,21.891,0,0,0,5.235-6.48c1.766-3.729,1.916-8.028,1.935-12.083.015-3.089-4.785-3.093-4.8,0a44.234,44.234,0,0,1-.289,5.754,15.32,15.32,0,0,1-1.217,4.36,20.16,20.16,0,0,1-4.722,5.471,51.825,51.825,0,0,1-5.751,4.35,27.034,27.034,0,0,1-3.542,2.143,2.418,2.418,0,0,0-.861,3.283,2.456,2.456,0,0,0,3.284.861Z"></path><path class="d" d="M341.073,354.549c-4.888-67.556-12.54-127.692-18.721-148.3-1.778-5.926-4.444-9.482-7.407-11.852s-7.89-3.944-11.314-5.6c-11.131-5.376-25.664-11.363-37.072-16.122l-2.175-.909a60.926,60.926,0,0,0-11.217-9.222c-4.983,21.36-13.835,44.417-20.852,65.2q-7.062,20.916-14.126,41.831c-6.279-15.569-10.431-26.048-15.761-41.831-7.017-20.78-15.869-43.837-20.851-65.2a61.648,61.648,0,0,0-11.781,9.81l-2.4,1c-11.41,4.76-25.95,10.75-37.08,16.12-3.42,1.66-7.44,2.44-10.03,5.22a28.929,28.929,0,0,0-6.04,9.85c-7.322,19.094-8.911,30.464-15.634,48.77-2.149-7.089-4.207-14.1-6.454-21.686-11.536,4.687-29.8,10.952-40.993,12.24,3.727,18.036,7.339,37.4,13.3,55.68,4.142,12.7,10.339,24.773,22.861,29.433a32.991,32.991,0,0,0,28.9-2.395c7.449-4.386,16.119-13.907,21.535-19.508l2.326-2.123c.47,7.013.342,13.844.342,21.294,0,9.95-.59,17.3-.6,28.59Z"></path><path class="c" d="M100.927,253.949c4.984-13.616,8.23-27.764,12.967-41.459a71.369,71.369,0,0,1,4.262-10.768c1.551-2.859,3.554-5.726,6.5-7.255,1.461-.759,3.025-1.282,4.547-1.9,1.707-.695,3.354-1.513,5.021-2.3,3.4-1.595,6.825-3.13,10.264-4.636,7.806-3.419,15.681-6.679,23.546-9.959a2.481,2.481,0,0,0,1.676-2.953,2.415,2.415,0,0,0-2.952-1.676c-7.3,3.045-14.6,6.072-21.863,9.212-6.819,2.949-13.516,6.164-20.367,9.024a19.211,19.211,0,0,0-4.977,2.827,22.061,22.061,0,0,0-3.659,4.195,43.073,43.073,0,0,0-5.074,10.572c-2.606,7.076-4.8,14.283-6.874,21.529-2.338,8.16-4.723,16.293-7.643,24.267a2.423,2.423,0,0,0,1.677,2.953,2.451,2.451,0,0,0,2.952-1.677Z"></path><path class="a" d="M220.009,171.791a.775.775,0,0,0-.2.206H215.17a6,6,0,0,0-2.053-1.161c-10.565-4.25-19.38-10.732-23.241-15.921-3.808,3.5-5.018,6.209-7.5,10.953,5.086,20.413,13.392,42.169,20.047,61.878,5.33,15.783,9.482,26.262,15.761,41.831q7.064-20.915,14.126-41.831c6.688-19.806,15.043-41.681,20.123-62.182-2.371-4.557-3.61-7.224-7.336-10.649-3.861,5.189-12.676,11.671-23.241,15.921A9.142,9.142,0,0,0,220.009,171.791Z"></path><path class="a" d="M235.8,189.66a103.432,103.432,0,0,0,16-25.333c-1.984-3.828-3.318-6.309-6.694-9.412-3.861,5.189-12.676,11.671-23.241,15.921A6,6,0,0,0,219.807,172c-.253.471.239.885.471,1.256.363.581,2.148,2.074,5.185,5.407C228.909,182.442,232.945,186.253,235.8,189.66Z"></path><path class="a" d="M199.181,189.66a103.491,103.491,0,0,1-16-25.333c1.985-3.828,3.319-6.309,6.695-9.412,3.861,5.189,12.676,11.671,23.241,15.921A6,6,0,0,1,215.17,172c.253.471-.239.885-.47,1.256-.364.581-2.148,2.074-5.185,5.407C206.069,182.442,202.033,186.253,199.181,189.66Z"></path><path class="e" d="M220.438,174.993c-2.608.008-4.777.014-7.413.015-.864.857-2.04,2.039-3.51,3.652-.787.864-1.6,1.729-2.433,2.591.582,3.019.991,4.927,1.632,7.674.1.483.225.949.345,1.432a13.253,13.253,0,0,1,.518,3.175c0,.616-3.02,22.655-5.134,40.092,4.424,12.7,8.279,22.4,13.746,35.953l12.957-38.368c-2.658-17.775-5.471-36.349-5.454-37.332a19.365,19.365,0,0,1,1.242-5.625c.744-2.285,1.2-4.284,1.688-6.248-1.074-1.11-2.142-2.228-3.159-3.344-1.482-1.626-2.665-2.814-3.531-3.672Z"></path><path class="c" d="M210.31,195.785c4.969,0,9.938-.11,14.908-.112a2.4,2.4,0,0,0,0-4.8c-4.97,0-9.939.11-14.908.112a2.4,2.4,0,1,0,0,4.8Z"></path><path class="c" d="M205,183.093q.644,3.246,1.4,6.47a14.605,14.605,0,0,1,.758,4.184c-.1,1.482-.37,2.971-.563,4.444-.886,6.783-1.786,13.564-2.659,20.349q-.9,7-1.762,14.009a2.413,2.413,0,0,0,2.4,2.4,2.459,2.459,0,0,0,2.4-2.4c.991-8.115,2.042-16.223,3.1-24.329.625-4.764,1.472-9.555,1.866-14.345a13.848,13.848,0,0,0-.631-4.4c-.628-2.538-1.174-5.1-1.682-7.662a2.424,2.424,0,0,0-2.952-1.677A2.451,2.451,0,0,0,205,183.093Z"></path><path class="c" d="M221.648,172.594q-4.421.007-8.841.018a2.4,2.4,0,1,0,0,4.8q4.421-.007,8.841-.018a2.4,2.4,0,0,0,0-4.8Z"></path><path class="c" d="M233.459,230.559q-1.738-11.625-3.476-23.248-.642-4.321-1.267-8.644-.221-1.542-.433-3.083c-.025-.186.057.441-.006-.053-.019-.148-.039-.3-.058-.445-.033-.261-.072-.523-.094-.786a9.409,9.409,0,0,1,.459-3.278c.583-2.107,1.3-4.167,1.838-6.29.754-3-3.874-4.275-4.629-1.276-.852,3.385-2.634,6.99-2.5,10.536a44.724,44.724,0,0,0,.576,4.443c.9,6.405,1.873,12.8,2.83,19.2q1.064,7.1,2.127,14.2a2.416,2.416,0,0,0,2.952,1.676,2.462,2.462,0,0,0,1.677-2.952Z"></path><path class="c" d="M214.445,273.178a50.613,50.613,0,0,0-2.782,16.5c.073,3.537.459,7.083.683,10.612.682,10.781,1.125,21.572,1.876,32.35q.774,11.109,1.748,22.2a2.463,2.463,0,0,0,2.4,2.4,2.419,2.419,0,0,0,2.4-2.4c-1.86-21.156-2.784-42.353-4.23-63.534a44.907,44.907,0,0,1,2.534-16.858c.96-2.944-3.674-4.2-4.629-1.276Z"></path><path class="c" d="M250.852,161.911c-3.4,14.528-8.184,28.695-13.076,42.777q-7.478,21.522-14.76,43.1l-8.572,25.386c-.99,2.933,3.644,4.192,4.629,1.276q7.7-22.8,15.4-45.6c4.73-14.005,9.848-27.879,14.34-41.964,2.494-7.821,4.8-15.708,6.67-23.7.7-3.005-3.923-4.287-4.629-1.276Z"></path><path class="c" d="M251.955,164.621a55,55,0,0,1,10.09,8.2,56.188,56.188,0,0,1,4.583,5.121c.587.754,1.141,1.536,1.66,2.338.261.4.515.813.754,1.23q.153.265.3.535.106.2.207.4.169.345-.053-.174l.328-1.211q.254-.254-.111,0l-.646.357-.861.475-2.368,1.306-4.52,2.493a2.419,2.419,0,0,0-.486,3.769c2.22,2.011,4.43,4.033,6.573,6.126q.678.66,1.345,1.332a8.909,8.909,0,0,1,1.643,1.687c.091.2.118-.057-.031.291-.321.751-.785,1.478-1.17,2.2q-4.035,7.555-8.216,15.033c-5.741,10.293-11.642,20.5-17.619,30.655q-4.951,8.412-9.965,16.788c-1.589,2.658,2.559,5.074,4.144,2.422,12.586-21.053,25.033-42.212,36.547-63.875.832-1.565,1.542-3.1.944-4.889-.528-1.579-1.908-2.728-3.05-3.872-2.506-2.51-5.122-4.909-7.751-7.29l-.486,3.77,6.028-3.325c1.749-.965,4.406-1.885,4.528-4.237.081-1.571-1.04-3.14-1.863-4.41a45.375,45.375,0,0,0-2.985-4.025,61.093,61.093,0,0,0-15.069-13.352c-2.643-1.616-5.057,2.534-2.423,4.144Z"></path><path class="c" d="M179.262,163.187c3.405,14.528,8.185,28.695,13.077,42.778,4.723,13.6,9.24,27.282,14.3,40.759,2.8,7.458,5.759,14.853,8.736,22.241a2.475,2.475,0,0,0,2.952,1.676A2.416,2.416,0,0,0,220,267.689c-5.283-13.11-10.4-26.269-14.945-39.656-4.75-14-9.846-27.89-14.352-41.975-2.549-7.967-4.9-16-6.812-24.147-.7-3.006-5.334-1.734-4.629,1.276Z"></path><path class="c" d="M180.365,160.477A61.089,61.089,0,0,0,165.3,173.829a45.886,45.886,0,0,0-2.9,3.887c-.853,1.3-2.032,2.937-1.953,4.548.117,2.361,2.775,3.27,4.529,4.237L171,189.826l-.486-3.77c-2.454,2.222-4.9,4.46-7.248,6.79a18.024,18.024,0,0,0-3.145,3.453,5.076,5.076,0,0,0,.113,5.01c2.655,5.313,5.675,10.476,8.607,15.64,6.281,11.061,12.82,21.974,19.453,32.828q5.508,9.015,11.093,17.983c1.626,2.619,5.78.212,4.144-2.422C190.946,245.064,178.4,224.727,167,203.754q-1.119-2.058-2.219-4.126a3.744,3.744,0,0,1-.472-.9c-.05-.308-.1.186.047-.136.278-.6,1.179-1.222,1.642-1.687,2.557-2.572,5.231-5.024,7.918-7.458a2.418,2.418,0,0,0-.486-3.769l-4.52-2.493L166.754,182l-1.077-.593c-.178-.1-.955-.724-.756-.354l.327,1.211c.016.383-.148.322.084-.09.1-.176.193-.356.293-.533q.353-.622.741-1.226c.512-.8,1.058-1.58,1.637-2.332a62.631,62.631,0,0,1,14.785-13.462c2.632-1.608.223-5.761-2.423-4.144Z"></path><path class="c" d="M237.493,191.357a109.556,109.556,0,0,0,12.858-18.7c.877-1.637,1.71-3.3,2.512-4.971a17.533,17.533,0,0,0,1.248-2.718c.327-1.191-.451-2.264-.984-3.268a31.484,31.484,0,0,0-6.328-8.479,2.447,2.447,0,0,0-3.77.485c-4.025,5.338-10.918,9.6-17.06,12.668-2,1-4.088,1.762-6.09,2.731-2.092,1.012-3.315,2.98-1.836,5.134,1.56,2.271,3.866,4.1,5.723,6.121,3.4,3.7,7.088,7.155,10.333,11a2.42,2.42,0,0,0,3.394,0,2.45,2.45,0,0,0,0-3.394c-3.051-3.615-6.5-6.865-9.719-10.332-1.382-1.491-2.765-2.973-4.209-4.4-.389-.386-.773-.778-1.162-1.163-.156-.154-.5-.66-.008.043-.06-.084-.381-.633-.344-.472v1.276l.071-.276-.618,1.059c-.243.286.251-.17.433-.267s.373-.191.562-.277c.808-.364,1.642-.676,2.455-1.03q2.142-.933,4.222-2a69.957,69.957,0,0,0,7.382-4.372,44.011,44.011,0,0,0,10.616-9.621l-3.77.486a31.163,31.163,0,0,1,6.32,8.926v-2.423A109.915,109.915,0,0,1,234.1,187.963a2.467,2.467,0,0,0,0,3.394A2.42,2.42,0,0,0,237.493,191.357Z"></path><path class="c" d="M200.878,187.963a109.946,109.946,0,0,1-15.624-24.848v2.423a31.159,31.159,0,0,1,6.319-8.926l-3.769-.486a44.011,44.011,0,0,0,10.616,9.621,69.957,69.957,0,0,0,7.382,4.372q1.977,1.016,4.015,1.911c.812.356,1.638.681,2.451,1.035.263.114.517.226.773.362.163.087.721.606.432.267l-.617-1.059.071.276v-1.276c.036-.161-.284.388-.344.472.5-.7.148-.2-.008-.043-.39.385-.773.777-1.162,1.163-1.444,1.431-2.828,2.913-4.209,4.4-3.214,3.467-6.668,6.717-9.72,10.332a2.465,2.465,0,0,0,0,3.394,2.42,2.42,0,0,0,3.394,0c2.856-3.382,6.066-6.443,9.1-9.665,1.405-1.494,2.778-3.015,4.227-4.468.7-.7,1.459-1.372,2.1-2.135,1.372-1.644,1.985-3.831-.03-5.3-1.651-1.2-3.817-1.783-5.661-2.648a69.689,69.689,0,0,1-10.889-6.324,37.47,37.47,0,0,1-7.768-7.116,2.447,2.447,0,0,0-3.77-.485,31.505,31.505,0,0,0-6.328,8.479c-.487.916-1.173,1.87-1.027,2.949a10.624,10.624,0,0,0,1.2,2.845q1.245,2.61,2.6,5.163a109.671,109.671,0,0,0,12.858,18.7,2.42,2.42,0,0,0,3.394,0A2.451,2.451,0,0,0,200.878,187.963Z"></path><path class="c" d="M296.09,354.846c-.017-9.94-.586-19.866-.6-29.806-.017-10.872-.045-21.656,1.886-32.394,3.709-20.63,6.806-41.373,9.483-62.162,1.369-10.628,2.615-21.274,3.672-31.938a2.417,2.417,0,0,0-2.4-2.4,2.452,2.452,0,0,0-2.4,2.4c-1.954,19.714-4.5,39.371-7.437,58.963q-2.331,15.577-5.053,31.093a152.493,152.493,0,0,0-2.2,16.251c-.364,5.367-.373,10.749-.359,16.126.031,11.294.594,22.574.613,33.867,0,3.088,4.805,3.093,4.8,0Z"></path><path class="c" d="M123.17,200.436c1.967,19.78,4.549,39.5,7.521,59.156q2.347,15.525,5.084,30.99a131.783,131.783,0,0,1,1.994,15.648c.3,5.226.286,10.463.27,15.695-.033,10.979-.591,21.944-.609,32.921,0,3.088,4.795,3.093,4.8,0,.015-9.535.589-19.057.6-28.59.011-10.666.161-21.322-1.535-31.888-1.661-10.346-3.595-20.646-5.2-31q-2.377-15.317-4.389-30.687c-1.4-10.729-2.663-21.476-3.734-32.242a2.468,2.468,0,0,0-2.4-2.4,2.416,2.416,0,0,0-2.4,2.4Z"></path><path class="c" d="M265.921,174.994c14.333,5.979,28.532,12.21,42.694,18.574a19.133,19.133,0,0,1,7.508,5.381,24.188,24.188,0,0,1,4.051,8.4c1.049,3.573,1.867,7.215,2.625,10.86,2.26,10.876,3.922,21.879,5.449,32.878,2.039,14.683,3.731,29.415,5.253,44.16q2.7,26.151,4.66,52.372.261,3.463.512,6.927a2.459,2.459,0,0,0,2.4,2.4,2.419,2.419,0,0,0,2.4-2.4q-1.958-27.012-4.63-53.965c-1.558-15.576-3.315-31.133-5.4-46.647-1.558-11.583-3.257-23.165-5.532-34.632-1.917-9.661-3.69-21.1-12.17-27.3-2.983-2.179-6.59-3.328-9.928-4.83-3.464-1.559-6.874-3.238-10.343-4.788-7.627-3.407-15.334-6.634-23.044-9.848l-5.226-2.178a2.414,2.414,0,0,0-2.953,1.676,2.462,2.462,0,0,0,1.677,2.952Z"></path><path class="c" d="M234.451,283.1c.267.24.483.53.742.773q-.365-.481-.15-.185c.047.066.092.134.135.2.074.116.143.236.208.358.1.192.208.609-.024-.107.045.141.105.276.149.418a5.513,5.513,0,0,1,.183.834l-.086-.638a6.032,6.032,0,0,1,0,1.513l.086-.638a6.626,6.626,0,0,1-.173.838q-.049.176-.108.348c-.038.113-.231.587-.035.123s0-.018-.053.091-.11.208-.169.309-.117.185-.177.277c-.248.383.42-.482.141-.178-.1.107-.5.649-.644.625.016,0,.556-.389.189-.156-.06.038-.118.079-.178.116-.135.084-.274.163-.416.234-.063.033-.128.061-.192.093-.338.167.5-.184.229-.1-.137.044-.269.1-.406.139a7,7,0,0,1-1,.219l.638-.086a7.121,7.121,0,0,1-1.816.006l.638.086a8.3,8.3,0,0,1-1.4-.359c.724.232.394.172.209.081-.117-.058-.233-.12-.345-.187-.083-.05-.162-.105-.243-.158-.33-.212.512.441.129.1a8.719,8.719,0,0,1-.624-.622c-.283-.311.343.508-.006-.014-.067-.1-.13-.2-.189-.307s-.107-.208-.161-.312c-.187-.362.22.623.035.046a4.707,4.707,0,0,1-.171-.75l.086.638a5.2,5.2,0,0,1,0-1.3l-.086.638a6.225,6.225,0,0,1,.2-.906c.043-.14.093-.278.143-.417.162-.456-.243.5-.024.064a9.052,9.052,0,0,1,.46-.829c.08-.126.164-.249.251-.371a1.066,1.066,0,0,1,.133-.179c-.073.063-.394.477-.132.181.09-.1.177-.2.274-.3s.465-.391.1-.113.041-.019.14-.082c.135-.084.273-.162.416-.234.024-.012.173-.1.194-.093,0,0-.592.227-.273.117.139-.048.276-.1.416-.142a6.488,6.488,0,0,1,.983-.209l-.638.086a6.45,6.45,0,0,1,1.577,0l-.638-.086a6.2,6.2,0,0,1,.662.132c.091.024.18.051.269.08s.5.195.08.015c-.4-.171-.073-.028.019.018s.2.1.294.161.188.122.282.183c.337.221-.46-.377-.133-.095a2.56,2.56,0,0,0,1.7.7,2.4,2.4,0,0,0,1.7-4.1,7.634,7.634,0,0,0-4.905-1.866,8.111,8.111,0,0,0-4.511,1.236,8.607,8.607,0,0,0-3.607,8.656,7.446,7.446,0,0,0,3.058,4.352,8.368,8.368,0,0,0,11.584-2.63,8.382,8.382,0,0,0,.967-4.491,7.95,7.95,0,0,0-2.586-5.257,2.4,2.4,0,0,0-3.4,3.394Z"></path><path class="c" d="M56.871,242.528c-.993-3.2-1.66-6.517-2.738-9.688l-1.676,2.952c8.7-2.4,17.386-4.852,25.952-7.682,2.5-.825,4.989-1.678,7.425-2.672l-2.953-1.676c1.209,3.066,2.174,6.223,3.354,9.3a2.469,2.469,0,0,0,2.953,1.676,2.418,2.418,0,0,0,1.676-2.952c-1.18-3.077-2.146-6.234-3.354-9.3-.431-1.093-1.65-2.207-2.952-1.676-9.406,3.838-19.389,6.446-29.158,9.183q-2.108.589-4.219,1.17a2.425,2.425,0,0,0-1.677,2.953c1.078,3.171,1.745,6.487,2.738,9.688.913,2.941,5.548,1.686,4.629-1.276Z"></path><path class="c" d="M109.259,278.786C103.927,262.98,99.208,246.988,94.47,231a2.418,2.418,0,0,0-2.953-1.677q-10.059,4.078-20.432,7.335c-6.457,2.023-13.318,4.039-19.923,4.82a2.448,2.448,0,0,0-2.314,3.038c2.39,11.574,4.646,23.179,7.427,34.668,2.553,10.545,5.267,21.333,9.825,31.219,3.767,8.17,9.493,15.832,17.819,19.74a36.049,36.049,0,0,0,31.429-.338c4.831-2.418,9.02-6.026,12.937-9.7,3.869-3.629,7.49-7.506,11.174-11.32,2.147-2.223-1.243-5.621-3.394-3.394-6.185,6.4-12.24,13.42-19.749,18.323a31.312,31.312,0,0,1-28.355,2.963c-7.9-2.95-13.289-9.71-16.932-17.057a87.069,87.069,0,0,1-4.831-12.5c-1.743-5.5-3.274-11.073-4.672-16.674-3.071-12.315-5.484-24.778-8.049-37.2l-2.315,3.038A116.538,116.538,0,0,0,71.978,241.4q10.556-3.286,20.815-7.455l-2.952-1.676c4.738,15.991,9.457,31.983,14.79,47.789.982,2.911,5.62,1.662,4.628-1.276Z"></path></g></svg>