<svg width="50" height="50" viewBox="0 0 50 50" fill="none" xmlns="http://www.w3.org/2000/svg">
<path fill-rule="evenodd" clip-rule="evenodd" d="M34.4037 44.7916H17.0124C10.6241 44.7916 5.72328 42.4842 7.11535 33.1974L8.73625 20.6116C9.59437 15.9777 12.5501 14.2043 15.1436 14.2043H36.3488C38.9803 14.2043 41.7645 16.1112 42.7561 20.6116L44.377 33.1974C45.5593 41.4354 40.7919 44.7916 34.4037 44.7916Z" stroke="#130F26" stroke-width="3" stroke-linecap="round" stroke-linejoin="round"/>
<path d="M34.6898 13.7466C34.6898 8.77565 30.66 4.74587 25.689 4.74587V4.74587C23.2953 4.73573 20.9961 5.67954 19.2999 7.36861C17.6037 9.05768 16.6501 11.3529 16.6501 13.7466V13.7466" stroke="#130F26" stroke-width="3" stroke-linecap="round" stroke-linejoin="round"/>
<path d="M31.8674 23.1288H31.772" stroke="#130F26" stroke-width="3" stroke-linecap="round" stroke-linejoin="round"/>
<path d="M19.7204 23.1288H19.625" stroke="#130F26" stroke-width="3" stroke-linecap="round" stroke-linejoin="round"/>
</svg>
