<?xml version="1.0" encoding="iso-8859-1"?>
<!-- Uploaded to: SVG Repo, www.svgrepo.com, Generator: SVG Repo Mixer Tools -->
<svg height="800px" width="800px" version="1.1" id="Capa_1" xmlns="http://www.w3.org/2000/svg" xmlns:xlink="http://www.w3.org/1999/xlink" 
	 viewBox="0 0 504 504" xml:space="preserve">
<g>
	<g>
		<g>
			<path style="fill:#8A8895;" d="M448,472c-2.047,0-4.094-0.781-5.656-2.344l-22.625-22.625C415.188,442.5,409.156,440,402.742,440
				H200c-4.422,0-8-3.578-8-8s3.578-8,8-8h202.742c10.688,0,20.734,4.164,28.289,11.719l22.625,22.625
				c3.125,3.125,3.125,8.188,0,11.313C452.094,471.219,450.047,472,448,472z"/>
		</g>
	</g>
	<g>
		<g>
			<path style="fill:#8A8895;" d="M144,400c-4.422,0-8-3.578-8-8V40c0-8.824-7.18-16-16-16c-4.422,0-8-3.582-8-8s3.578-8,8-8
				c17.648,0,32,14.355,32,32v352C152,396.422,148.422,400,144,400z"/>
		</g>
	</g>
	<g>
		<g>
			<path style="fill:#FFE0B1;" d="M451,424H173c-11.598,0-21-9.402-21-21V125c0-11.598,9.402-21,21-21h278c11.598,0,21,9.402,21,21
				v278C472,414.598,462.598,424,451,424z"/>
		</g>
		<g>
			<g>
				<path style="fill:#F7AA6B;" d="M424,384H200c-4.422,0-8-3.578-8-8V152c0-4.418,3.578-8,8-8h224c4.422,0,8,3.582,8,8v224
					C432,380.422,428.422,384,424,384z M208,368h208V160H208V368z"/>
			</g>
		</g>
		<g>
			<g>
				<path style="fill:#F7AA6B;" d="M424,272H200c-4.422,0-8-3.578-8-8s3.578-8,8-8h224c4.422,0,8,3.578,8,8S428.422,272,424,272z"/>
			</g>
		</g>
		<g>
			<g>
				<path style="fill:#F7AA6B;" d="M424,216H200c-4.422,0-8-3.578-8-8s3.578-8,8-8h224c4.422,0,8,3.578,8,8S428.422,216,424,216z"/>
			</g>
		</g>
		<g>
			<g>
				<path style="fill:#F7AA6B;" d="M424,328H200c-4.422,0-8-3.578-8-8s3.578-8,8-8h224c4.422,0,8,3.578,8,8S428.422,328,424,328z"/>
			</g>
		</g>
	</g>
	<g>
		<circle style="fill:#5C546A;" cx="144" cy="440" r="64"/>
	</g>
	<g>
		<circle style="fill:#8A8895;" cx="144" cy="440" r="32"/>
	</g>
	<g>
		<path style="fill:#5C546A;" d="M120,32H40c-4.418,0-8-3.582-8-8V8c0-4.418,3.582-8,8-8l80,0c4.418,0,8,3.582,8,8v16
			C128,28.418,124.418,32,120,32z"/>
	</g>
</g>
</svg>